<svg xmlns="http://www.w3.org/2000/svg" width="23.625" height="26.25" viewBox="0 0 23.625 26.25">
  <path id="calendar_month_FILL0_wght400_GRAD0_opsz24" d="M122.625-853.75a2.528,2.528,0,0,1-1.854-.771,2.528,2.528,0,0,1-.771-1.854V-874.75a2.528,2.528,0,0,1,.771-1.854,2.528,2.528,0,0,1,1.854-.771h1.313V-880h2.625v2.625h10.5V-880h2.625v2.625H141a2.528,2.528,0,0,1,1.854.771,2.528,2.528,0,0,1,.771,1.854v18.375a2.528,2.528,0,0,1-.771,1.854,2.528,2.528,0,0,1-1.854.771Zm0-2.625H141V-869.5H122.625Zm0-15.75H141v-2.625H122.625Zm0,0v0Zm9.188,7.875a1.27,1.27,0,0,1-.935-.377,1.27,1.27,0,0,1-.377-.935,1.27,1.27,0,0,1,.377-.935,1.27,1.27,0,0,1,.935-.377,1.27,1.27,0,0,1,.935.377,1.27,1.27,0,0,1,.377.935,1.27,1.27,0,0,1-.377.935A1.27,1.27,0,0,1,131.813-864.25Zm-5.25,0a1.27,1.27,0,0,1-.935-.377,1.27,1.27,0,0,1-.377-.935,1.27,1.27,0,0,1,.377-.935,1.27,1.27,0,0,1,.935-.377,1.27,1.27,0,0,1,.935.377,1.27,1.27,0,0,1,.377.935,1.27,1.27,0,0,1-.377.935A1.27,1.27,0,0,1,126.563-864.25Zm10.5,0a1.27,1.27,0,0,1-.935-.377,1.27,1.27,0,0,1-.377-.935,1.27,1.27,0,0,1,.377-.935,1.27,1.27,0,0,1,.935-.377,1.27,1.27,0,0,1,.935.377,1.27,1.27,0,0,1,.377.935,1.27,1.27,0,0,1-.377.935A1.27,1.27,0,0,1,137.063-864.25Zm-5.25,5.25a1.27,1.27,0,0,1-.935-.377,1.27,1.27,0,0,1-.377-.935,1.27,1.27,0,0,1,.377-.935,1.27,1.27,0,0,1,.935-.377,1.27,1.27,0,0,1,.935.377,1.27,1.27,0,0,1,.377.935,1.27,1.27,0,0,1-.377.935A1.27,1.27,0,0,1,131.813-859Zm-5.25,0a1.27,1.27,0,0,1-.935-.377,1.27,1.27,0,0,1-.377-.935,1.27,1.27,0,0,1,.377-.935,1.27,1.27,0,0,1,.935-.377,1.27,1.27,0,0,1,.935.377,1.27,1.27,0,0,1,.377.935,1.27,1.27,0,0,1-.377.935A1.27,1.27,0,0,1,126.563-859Zm10.5,0a1.27,1.27,0,0,1-.935-.377,1.27,1.27,0,0,1-.377-.935,1.27,1.27,0,0,1,.377-.935,1.27,1.27,0,0,1,.935-.377,1.27,1.27,0,0,1,.935.377,1.27,1.27,0,0,1,.377.935,1.27,1.27,0,0,1-.377.935A1.27,1.27,0,0,1,137.063-859Z" transform="translate(-120 880)" fill="#275a5c"/>
</svg>
