<svg xmlns="http://www.w3.org/2000/svg" width="33.42" height="36.334" viewBox="0 0 33.42 36.334">
  <g id="Group_122" data-name="Group 122" transform="translate(-109.08 -172.595)">
    <g id="_647_Video_Camera_Art_Arts_Paint" data-name="647, Video, Camera, Art, Arts, Paint" transform="translate(109.08 172.595)">
      <g id="Group_121" data-name="Group 121">
        <path id="Path_826" data-name="Path 826" d="M125.279,200.161h11.477a.787.787,0,0,0,.773-.773v-3.033a.787.787,0,0,0-.773-.773H125.279a.787.787,0,0,0-.773.773v3.033A.786.786,0,0,0,125.279,200.161Zm.773-3.033h9.931v1.487h-9.931Z" transform="translate(-115.408 -182.024)" fill="#85dbe0"/>
        <path id="Path_827" data-name="Path 827" d="M139.325,183.9a3.033,3.033,0,1,0-2.914-2.141A3.046,3.046,0,0,0,139.325,183.9Zm0-4.579a1.472,1.472,0,0,1,1.486,1.487,1.564,1.564,0,0,1-1.486,1.546,1.487,1.487,0,0,1-1.487-1.546A1.436,1.436,0,0,1,139.325,179.324Z" transform="translate(-120.237 -174.746)" fill="#43959d"/>
        <path id="Path_828" data-name="Path 828" d="M121.178,183.9a3.033,3.033,0,1,0-2.914-2.141A3.046,3.046,0,0,0,121.178,183.9Zm0-4.579a1.472,1.472,0,0,1,1.486,1.487,1.564,1.564,0,0,1-1.486,1.546,1.535,1.535,0,0,1-1.546-1.546A1.564,1.564,0,0,1,121.178,179.324Z" transform="translate(-112.793 -174.746)" fill="#43959d"/>
        <path id="Path_829" data-name="Path 829" d="M143.682,204.657a1.13,1.13,0,1,0,1.13,1.13A1.129,1.129,0,0,0,143.682,204.657Zm0,1.546a.357.357,0,1,1,.357-.357C144.1,206.025,143.921,206.2,143.682,206.2Z" transform="translate(-122.81 -185.746)" fill="#43959d"/>
        <path id="Path_830" data-name="Path 830" d="M138.541,204.657a1.13,1.13,0,1,0,1.13,1.13A1.129,1.129,0,0,0,138.541,204.657Zm0,1.546a.357.357,0,1,1,.357-.357A.343.343,0,0,1,138.541,206.2Z" transform="translate(-120.701 -185.746)" fill="#43959d"/>
        <path id="Path_831" data-name="Path 831" d="M151.526,221.131a2.26,2.26,0,1,0,2.26-2.26A2.259,2.259,0,0,0,151.526,221.131Zm3.033,0a.773.773,0,1,1-.773-.773A.787.787,0,0,1,154.559,221.131Z" transform="translate(-126.491 -191.576)" fill="#83c3ca"/>
        <path id="Path_832" data-name="Path 832" d="M155.1,178.425a2.26,2.26,0,1,0-2.26-2.26A2.259,2.259,0,0,0,155.1,178.425Zm0-3.092a.773.773,0,1,1-.773.773A.787.787,0,0,1,155.1,175.333Z" transform="translate(-127.028 -173.133)" fill="#85dbe0"/>
        <path id="Path_833" data-name="Path 833" d="M112.886,219.464a1.9,1.9,0,1,0-1.9,1.9A1.916,1.916,0,0,0,112.886,219.464Zm-1.9.357a.343.343,0,0,1-.357-.357.357.357,0,1,1,.714,0C111.4,219.642,111.221,219.821,110.983,219.821Z" transform="translate(-109.08 -191.039)" fill="#85dbe0"/>
        <path id="Path_834" data-name="Path 834" d="M162.583,217.461a.773.773,0,1,1-.773.773A.773.773,0,0,1,162.583,217.461Z" transform="translate(-130.709 -190.998)" fill="#85dbe0"/>
        <path id="Path_835" data-name="Path 835" d="M163.894,178.947a.773.773,0,1,1-.773.773A.773.773,0,0,1,163.894,178.947Z" transform="translate(-131.247 -175.201)" fill="#83c3ca"/>
        <path id="Path_836" data-name="Path 836" d="M109.853,177.872a.773.773,0,1,0-.773-.773A.787.787,0,0,0,109.853,177.872Z" transform="translate(-109.08 -174.125)" fill="#85dbe0"/>
        <path id="Path_837" data-name="Path 837" d="M115,228.081a.773.773,0,1,0-.773-.773A.787.787,0,0,0,115,228.081Z" transform="translate(-111.189 -194.72)" fill="#43959d"/>
        <path id="Path_838" data-name="Path 838" d="M138.735,207.442h-7.017l-2.557-8.326h1.308a.787.787,0,0,0,.773-.773v-2.2h2.26a.787.787,0,0,0,.773-.773v-2.557c6.66,3.39,6.363,3.33,6.72,3.33a.787.787,0,0,0,.773-.773V181.634a.709.709,0,0,0-1.071-.654l-6.422,3.211v-5a6.08,6.08,0,0,0-11.418-3.39,6.054,6.054,0,1,0-10.644,5.768v6.066h-2.26a.787.787,0,0,0-.773.773v4.638a.787.787,0,0,0,.773.773h2.2v1.487a.787.787,0,0,0,.773.773h2.378v2.2a.787.787,0,0,0,.773.773h1.962l-2.557,8.325h-3.33a.773.773,0,1,0,0,1.546h26.522a.787.787,0,0,0,.773-.773A.723.723,0,0,0,138.735,207.442Zm1.487-24.56v11.24l-6.006-3.033v-5.233Zm-12.012-8.742a4.519,4.519,0,1,1-4.52,4.52A4.444,4.444,0,0,1,128.21,174.141Zm-10.7,0a4.519,4.519,0,1,1,0,9.039,4.52,4.52,0,1,1,0-9.039Zm-6.839,18.2v-3.092h1.487v3.092Zm3.033-8.92a6.1,6.1,0,0,0,9.158-1.844,6.046,6.046,0,0,0,9.872,1.13V194.6H113.7Zm3.092,12.725h12.9v1.427h-12.9v-1.427Zm.238,11.3,2.557-8.326h2.8l-3.866,8.326Zm6.542-7.315,3.33,7.315h-6.72Zm5,7.315-3.866-8.326h2.8l2.557,8.326Z" transform="translate(-109.121 -172.595)" fill="#275a5c"/>
      </g>
    </g>
  </g>
</svg>
