<svg xmlns="http://www.w3.org/2000/svg" width="46.74" height="42.845" viewBox="0 0 46.74 42.845">
  <path id="diversity_2_FILL0_wght400_GRAD0_opsz24" d="M17.041-900.155a7.149,7.149,0,0,1-4.017-1.168,7.726,7.726,0,0,1-2.751-3.213A5.234,5.234,0,0,1,8.3-902.955a5.726,5.726,0,0,1-2.459.56,5.612,5.612,0,0,1-4.163-1.7A5.676,5.676,0,0,1,0-908.237a5.834,5.834,0,0,1,1.363-3.773,5.06,5.06,0,0,1,3.457-1.923A8.012,8.012,0,0,1,3.773-916a7.264,7.264,0,0,1-.365-2.313,7.1,7.1,0,0,1,1-3.651,7.779,7.779,0,0,1,2.8-2.775,16.35,16.35,0,0,0,.657,1.874,8.266,8.266,0,0,0,.949,1.728,3.9,3.9,0,0,0-1.071,1.29,3.4,3.4,0,0,0-.389,1.582q0,2.727,2.24,3.359t4.236,1.022l.925,1.558q-.536,1.558-.925,2.653a5.959,5.959,0,0,0-.389,1.972,3.584,3.584,0,0,0,1.047,2.556,3.4,3.4,0,0,0,2.556,1.1,3.673,3.673,0,0,0,3.067-1.655,14.654,14.654,0,0,0,2-3.895,30.039,30.039,0,0,0,1.193-4.528q.414-2.288.657-3.505l3.8,1.022q-.438,2.191-1.071,5.015a28.258,28.258,0,0,1-1.777,5.38,13.193,13.193,0,0,1-3.019,4.309A6.808,6.808,0,0,1,17.041-900.155Zm-11.2-6.135a1.884,1.884,0,0,0,1.388-.56,1.884,1.884,0,0,0,.56-1.388,1.884,1.884,0,0,0-.56-1.388,1.884,1.884,0,0,0-1.388-.56,1.884,1.884,0,0,0-1.388.56,1.884,1.884,0,0,0-.56,1.388,1.884,1.884,0,0,0,.56,1.388A1.884,1.884,0,0,0,5.842-906.29Zm13.827-7.693q-2.24-2-4.065-3.725a34.416,34.416,0,0,1-3.14-3.359,14.269,14.269,0,0,1-2.021-3.262,8.434,8.434,0,0,1-.706-3.384,7.246,7.246,0,0,1,2.167-5.331,7.246,7.246,0,0,1,5.331-2.167,2.1,2.1,0,0,1,.341.024,2.1,2.1,0,0,0,.341.024,5.551,5.551,0,0,1-.292-.974,5.205,5.205,0,0,1-.1-1.022,5.634,5.634,0,0,1,1.7-4.138A5.634,5.634,0,0,1,23.37-943a5.634,5.634,0,0,1,4.138,1.7,5.634,5.634,0,0,1,1.7,4.138,4.843,4.843,0,0,1-.1,1,5.749,5.749,0,0,1-.292.949H29.5a7.085,7.085,0,0,1,4.966,1.875,7.545,7.545,0,0,1,2.434,4.65,12.06,12.06,0,0,0-1.972-.146,19.374,19.374,0,0,0-2.021.1,3.724,3.724,0,0,0-1.242-1.85,3.331,3.331,0,0,0-2.167-.73,3.487,3.487,0,0,0-2.653,1q-.949,1-2.6,2.9h-1.8q-1.7-2-2.653-2.946a3.454,3.454,0,0,0-2.556-.949,3.5,3.5,0,0,0-2.58,1.022,3.5,3.5,0,0,0-1.022,2.58,4.924,4.924,0,0,0,.633,2.313,14.279,14.279,0,0,0,1.777,2.532,34.319,34.319,0,0,0,2.775,2.848q1.631,1.509,3.627,3.262Zm3.7-21.228a1.884,1.884,0,0,0,1.388-.56,1.884,1.884,0,0,0,.56-1.388,1.884,1.884,0,0,0-.56-1.388,1.884,1.884,0,0,0-1.388-.56,1.884,1.884,0,0,0-1.388.56,1.884,1.884,0,0,0-.56,1.388,1.884,1.884,0,0,0,.56,1.388A1.884,1.884,0,0,0,23.37-935.21Zm6.281,35.055a7.844,7.844,0,0,1-2.118-.292,7.294,7.294,0,0,1-2.021-.925,13.791,13.791,0,0,0,1.071-1.607q.536-.925.974-1.7a3.921,3.921,0,0,0,1.071.487,4.056,4.056,0,0,0,1.071.146,3.456,3.456,0,0,0,2.6-1.1,3.641,3.641,0,0,0,1.047-2.6,5.865,5.865,0,0,0-.389-2q-.389-1.071-.925-2.629l.925-1.558q2.045-.389,4.26-1.022t2.215-3.359A3.057,3.057,0,0,0,38-921.139a5.916,5.916,0,0,0-3.14-.876,17.7,17.7,0,0,0-4.771.779q-2.726.779-6.378,2l-1.022-3.8q3.8-1.217,6.768-2.045a20.44,20.44,0,0,1,5.453-.828,9.24,9.24,0,0,1,5.891,2,6.724,6.724,0,0,1,2.532,5.6A7.264,7.264,0,0,1,42.967-916a8.012,8.012,0,0,1-1.047,2.069,5.06,5.06,0,0,1,3.457,1.923,5.834,5.834,0,0,1,1.363,3.773,5.676,5.676,0,0,1-1.68,4.138,5.612,5.612,0,0,1-4.163,1.7,5.726,5.726,0,0,1-2.459-.56,5.234,5.234,0,0,1-1.972-1.582,7.726,7.726,0,0,1-2.751,3.213A7.232,7.232,0,0,1,29.651-900.155Zm11.3-6.135a1.8,1.8,0,0,0,1.363-.56,1.93,1.93,0,0,0,.536-1.388,1.967,1.967,0,0,0-.56-1.412,1.844,1.844,0,0,0-1.388-.584,1.884,1.884,0,0,0-1.388.56,1.884,1.884,0,0,0-.56,1.388,1.923,1.923,0,0,0,.584,1.412A1.924,1.924,0,0,0,40.946-906.29ZM5.842-908.237ZM23.37-937.158ZM40.9-908.286Z" transform="translate(0 943)" fill="#85dbe0"/>
</svg>
