<svg xmlns="http://www.w3.org/2000/svg" width="39.794" height="31.504" viewBox="0 0 39.794 31.504">
  <path id="diversity_1_FILL0_wght400_GRAD0_opsz24" d="M1.575-822.922a16.226,16.226,0,0,1-1.161-3.026A11.865,11.865,0,0,1,0-829.057a10.585,10.585,0,0,1,3.15-7.793A10.586,10.586,0,0,1,10.943-840a11.662,11.662,0,0,1,4.974,1.1,11.271,11.271,0,0,1,3.979,3.047,11.271,11.271,0,0,1,3.979-3.047,11.662,11.662,0,0,1,4.974-1.1,10.586,10.586,0,0,1,7.793,3.15,10.585,10.585,0,0,1,3.15,7.793,11.865,11.865,0,0,1-.415,3.109,16.226,16.226,0,0,1-1.161,3.026,6.8,6.8,0,0,0-1.078-1.409,4.84,4.84,0,0,0-1.451-.995,13.081,13.081,0,0,0,.58-1.865,8.39,8.39,0,0,0,.207-1.865,7.377,7.377,0,0,0-2.2-5.43,7.377,7.377,0,0,0-5.43-2.2,6.891,6.891,0,0,0-5.161,1.845q-1.8,1.845-3.793,4.125-1.99-2.321-3.793-4.145a6.937,6.937,0,0,0-5.161-1.824,7.377,7.377,0,0,0-5.43,2.2,7.377,7.377,0,0,0-2.2,5.43,8.39,8.39,0,0,0,.207,1.865,13.081,13.081,0,0,0,.58,1.865,4.84,4.84,0,0,0-1.451.995A6.8,6.8,0,0,0,1.575-822.922ZM0-808.5v-2.612a3.3,3.3,0,0,1,1.845-2.922,9.268,9.268,0,0,1,4.788-1.1q.539,0,1.036.021a6.954,6.954,0,0,1,.953.1,6.279,6.279,0,0,0-.871,1.782,6.941,6.941,0,0,0-.29,2.031v2.694Zm9.949,0v-2.694a4.95,4.95,0,0,1,2.757-4.353A13.82,13.82,0,0,1,19.9-817.2a13.8,13.8,0,0,1,7.213,1.658,4.954,4.954,0,0,1,2.736,4.353v2.694Zm22.384,0v-2.694a7.438,7.438,0,0,0-.269-2.031A6.492,6.492,0,0,0,31.255-815a6.889,6.889,0,0,1,.933-.1q.477-.021.974-.021a9.245,9.245,0,0,1,4.808,1.1,3.307,3.307,0,0,1,1.824,2.922v2.612ZM19.9-813.885a13.338,13.338,0,0,0-4.228.622q-1.865.622-2.2,1.451H26.364q-.373-.829-2.218-1.451A13.29,13.29,0,0,0,19.9-813.885Zm-13.265-2.9a3.193,3.193,0,0,1-2.342-.974,3.193,3.193,0,0,1-.974-2.342,3.174,3.174,0,0,1,.974-2.363,3.228,3.228,0,0,1,2.342-.953A3.209,3.209,0,0,1,9-822.466a3.209,3.209,0,0,1,.953,2.363A3.228,3.228,0,0,1,9-817.761,3.174,3.174,0,0,1,6.632-816.787Zm26.53,0a3.193,3.193,0,0,1-2.342-.974,3.193,3.193,0,0,1-.974-2.342,3.174,3.174,0,0,1,.974-2.363,3.228,3.228,0,0,1,2.342-.953,3.209,3.209,0,0,1,2.363.953,3.209,3.209,0,0,1,.953,2.363,3.228,3.228,0,0,1-.953,2.342A3.174,3.174,0,0,1,33.162-816.787ZM19.9-818.445a4.8,4.8,0,0,1-3.523-1.451,4.8,4.8,0,0,1-1.451-3.523,4.778,4.778,0,0,1,1.451-3.544,4.832,4.832,0,0,1,3.523-1.43,4.813,4.813,0,0,1,3.544,1.43,4.813,4.813,0,0,1,1.43,3.544,4.833,4.833,0,0,1-1.43,3.523A4.778,4.778,0,0,1,19.9-818.445Zm0-6.632a1.6,1.6,0,0,0-1.181.477,1.6,1.6,0,0,0-.477,1.181,1.6,1.6,0,0,0,.477,1.181,1.6,1.6,0,0,0,1.181.477,1.6,1.6,0,0,0,1.181-.477,1.6,1.6,0,0,0,.477-1.181,1.6,1.6,0,0,0-.477-1.181A1.6,1.6,0,0,0,19.9-825.077ZM19.9-823.419ZM19.939-811.812Z" transform="translate(0 840)" fill="#85dbe0"/>
</svg>
