<svg xmlns="http://www.w3.org/2000/svg" width="39.879" height="32.701" viewBox="0 0 39.879 32.701">
  <path id="how_to_reg_FILL0_wght400_GRAD0_opsz24" d="M80-768.1v-5.583a6.011,6.011,0,0,1,.847-3.091,5.526,5.526,0,0,1,2.343-2.193,31.216,31.216,0,0,1,5.733-2.193,25.911,25.911,0,0,1,7.029-.9,27.837,27.837,0,0,1,2.916.15,24.622,24.622,0,0,1,2.767.449l-3.489,3.489a5.985,5.985,0,0,0-1.072-.1H95.952a22.04,22.04,0,0,0-6.356.847,23.66,23.66,0,0,0-4.611,1.844,1.941,1.941,0,0,0-.723.7,1.874,1.874,0,0,0-.274,1v1.6H96.45l3.988,3.988Zm27.018.8-6.879-6.879,2.792-2.792,4.088,4.088,10.069-10.069,2.792,2.792ZM95.952-784.048a7.68,7.68,0,0,1-5.633-2.343,7.68,7.68,0,0,1-2.343-5.633,7.68,7.68,0,0,1,2.343-5.633A7.68,7.68,0,0,1,95.952-800a7.68,7.68,0,0,1,5.633,2.343,7.68,7.68,0,0,1,2.343,5.633,7.68,7.68,0,0,1-2.343,5.633A7.68,7.68,0,0,1,95.952-784.048ZM96.45-772.085Zm-.5-15.951a3.84,3.84,0,0,0,2.816-1.171,3.84,3.84,0,0,0,1.171-2.817,3.84,3.84,0,0,0-1.171-2.816,3.84,3.84,0,0,0-2.816-1.171,3.84,3.84,0,0,0-2.816,1.171,3.84,3.84,0,0,0-1.171,2.816,3.84,3.84,0,0,0,1.171,2.817A3.84,3.84,0,0,0,95.952-788.036ZM95.952-792.024Z" transform="translate(-80 800)" fill="#85dbe0"/>
</svg>
