<svg xmlns="http://www.w3.org/2000/svg" width="41.322" height="40.338" viewBox="0 0 41.322 40.338">
  <path id="volunteer_activism_FILL0_wght400_GRAD0_opsz24" d="M69.516-858.355l-8.166-7.969a15.444,15.444,0,0,1-2.583-3.271,7.569,7.569,0,0,1-1.058-3.911,6.262,6.262,0,0,1,1.894-4.6A6.262,6.262,0,0,1,64.2-880a6.708,6.708,0,0,1,2.952.664,7.286,7.286,0,0,1,2.361,1.8,7.286,7.286,0,0,1,2.361-1.8A6.708,6.708,0,0,1,74.829-880a6.262,6.262,0,0,1,4.6,1.894,6.262,6.262,0,0,1,1.894,4.6,7.707,7.707,0,0,1-1.033,3.911,14.824,14.824,0,0,1-2.558,3.271Zm0-5.51,5.362-5.264a18.077,18.077,0,0,0,1.722-1.992,3.9,3.9,0,0,0,.787-2.386,2.473,2.473,0,0,0-.738-1.82,2.473,2.473,0,0,0-1.82-.738,3.2,3.2,0,0,0-1.3.271,2.822,2.822,0,0,0-1.058.812l-2.952,3.542-2.952-3.542a2.822,2.822,0,0,0-1.058-.812,3.2,3.2,0,0,0-1.3-.271,2.473,2.473,0,0,0-1.82.738,2.473,2.473,0,0,0-.738,1.82,3.9,3.9,0,0,0,.787,2.386,18.075,18.075,0,0,0,1.722,1.992Zm-17.71,16.332,13.676,3.739,11.708-3.64a2.248,2.248,0,0,0-.713-.762,1.829,1.829,0,0,0-1.058-.32H65.482a17.886,17.886,0,0,1-2.115-.1,7.779,7.779,0,0,1-1.623-.393l-4.575-1.525,1.082-3.837,3.985,1.328a13.009,13.009,0,0,0,1.968.393q1.131.148,3.345.2a1.866,1.866,0,0,0-.32-1.033,1.481,1.481,0,0,0-.762-.64l-11.511-4.231H51.806ZM40-840.645V-862.29H54.955a3.278,3.278,0,0,1,.689.074,6.01,6.01,0,0,1,.64.172l11.56,4.28a5.336,5.336,0,0,1,2.632,2.066,5.632,5.632,0,0,1,1.008,3.247h3.935a5.872,5.872,0,0,1,4.181,1.623,5.608,5.608,0,0,1,1.722,4.28v1.968L65.58-839.662,51.806-843.5v2.853Zm3.935-3.935h3.935v-13.774H43.935ZM69.516-871.44Z" transform="translate(-40 880)" fill="#85dbe0"/>
</svg>
