<svg xmlns="http://www.w3.org/2000/svg" width="48.063" height="20.372" viewBox="0 0 48.063 20.372">
  <path id="communication_FILL0_wght400_GRAD0_opsz24" d="M60.1-678.745,57.8-681.039a3.663,3.663,0,0,0,.6-1.229,5.064,5.064,0,0,0,.164-1.283,5.063,5.063,0,0,0-.164-1.283,3.135,3.135,0,0,0-.6-1.174l2.294-2.349a7.216,7.216,0,0,1,1.311,2.294,7.606,7.606,0,0,1,.437,2.512,7.37,7.37,0,0,1-.437,2.485A7.992,7.992,0,0,1,60.1-678.745Zm4.642,4.7L62.393-676.4a10.481,10.481,0,0,0,2.048-3.386,10.846,10.846,0,0,0,.683-3.769,10.622,10.622,0,0,0-.683-3.741,10.559,10.559,0,0,0-2.048-3.359L64.741-693a13.459,13.459,0,0,1,2.758,4.451,14.265,14.265,0,0,1,.9,5,14.49,14.49,0,0,1-.9,5.025A13.391,13.391,0,0,1,64.741-674.048Zm-16-7.319a4.208,4.208,0,0,1-3.086-1.283,4.207,4.207,0,0,1-1.283-3.086,4.207,4.207,0,0,1,1.283-3.086,4.207,4.207,0,0,1,3.086-1.283,4.207,4.207,0,0,1,3.086,1.283,4.207,4.207,0,0,1,1.283,3.086,4.207,4.207,0,0,1-1.283,3.086A4.208,4.208,0,0,1,48.739-681.367ZM40-672.628v-1.256a4.32,4.32,0,0,1,.71-2.4,4.354,4.354,0,0,1,1.966-1.639,16.527,16.527,0,0,1,2.922-.928,14.693,14.693,0,0,1,3.14-.328,14.693,14.693,0,0,1,3.14.328,16.527,16.527,0,0,1,2.922.928,4.354,4.354,0,0,1,1.966,1.639,4.319,4.319,0,0,1,.71,2.4v1.256Zm39.324-8.739a4.208,4.208,0,0,1-3.086-1.283,4.207,4.207,0,0,1-1.283-3.086,4.207,4.207,0,0,1,1.283-3.086,4.207,4.207,0,0,1,3.086-1.283,4.207,4.207,0,0,1,3.086,1.283,4.207,4.207,0,0,1,1.283,3.086,4.207,4.207,0,0,1-1.283,3.086A4.208,4.208,0,0,1,79.324-681.367Zm-8.739,8.739v-1.256a4.319,4.319,0,0,1,.71-2.4,4.354,4.354,0,0,1,1.966-1.639,16.527,16.527,0,0,1,2.922-.928,14.693,14.693,0,0,1,3.14-.328,14.693,14.693,0,0,1,3.14.328,16.526,16.526,0,0,1,2.922.928,4.354,4.354,0,0,1,1.966,1.639,4.319,4.319,0,0,1,.71,2.4v1.256Z" transform="translate(-40 693)" fill="#85dbe0"/>
</svg>
