<svg xmlns="http://www.w3.org/2000/svg" width="37.845" height="38.4" viewBox="0 0 37.845 38.4">
  <g id="_85_Lily_Lotus_Spa" data-name="85, Lily, Lotus, Spa" transform="translate(-938.193 -361.265)">
    <g id="Group_88" data-name="Group 88" transform="translate(938.193 361.265)">
      <path id="Path_661" data-name="Path 661" d="M971.052,395.315c3.713-4.518,4.356-10.518,2.428-16.023a.391.391,0,0,0-.428-.283,18.379,18.379,0,0,0-8.927,2.471,17.868,17.868,0,0,0-5.855-7.059.348.348,0,0,0-.5,0,17.4,17.4,0,0,0-5.855,7.059,17.952,17.952,0,0,0-8.926-2.471.482.482,0,0,0-.428.283,16.282,16.282,0,0,0,2.428,16.023c-2.214.635-4.57,1.694-4.57,3.318,0,3.176,9.068,4.871,17.637,4.871s17.566-1.694,17.566-4.871C975.622,397.08,973.265,395.95,971.052,395.315Zm1.643-15.388c2.142,6.494.357,12.706-3.928,16.518h-5.855a15.684,15.684,0,0,0,1.571-14.118A16.391,16.391,0,0,1,972.695,379.927Zm-14.71-4.588c7.283,5.435,8.569,14.4,3.855,21.106h-7.712C949.416,389.809,950.7,380.774,957.985,375.339Zm-14.71,4.588a16.89,16.89,0,0,1,8.212,2.4,15.517,15.517,0,0,0,1.571,14.118H947.2C942.846,392.562,941.133,386.28,943.275,379.927Zm26.778,21.459a57.606,57.606,0,0,1-24.064,0c-3.5-.917-4.713-1.976-4.713-2.682s1.142-1.695,4.355-2.612c.357.424.786.776,1.143,1.129a.537.537,0,0,0,.285.141h21.922a.368.368,0,0,0,.285-.141,8.559,8.559,0,0,0,1.144-1.129c3.212.848,4.355,1.907,4.355,2.612S973.48,400.469,970.053,401.386Z" transform="translate(-938.848 -365.103)" fill="#275a5c"/>
      <path id="Path_662" data-name="Path 662" d="M959.127,388.033a.457.457,0,0,0,.428-.424,9.169,9.169,0,0,1,3.785-7.271,9.068,9.068,0,0,1,3.784,7.271.429.429,0,0,0,.857,0,10.225,10.225,0,0,0-4.427-8.188.348.348,0,0,0-.5,0,10.225,10.225,0,0,0-4.427,8.188A.475.475,0,0,0,959.127,388.033Z" transform="translate(-944.203 -366.574)" fill="#83c3ca"/>
      <path id="Path_663" data-name="Path 663" d="M981.875,372.73a2.682,2.682,0,1,0-2.713-2.682A2.7,2.7,0,0,0,981.875,372.73Zm0-4.376a1.765,1.765,0,1,1-1.784,1.765A1.758,1.758,0,0,1,981.875,368.354Z" transform="translate(-950.243 -363.059)" fill="#85dbe0"/>
      <path id="Path_664" data-name="Path 664" d="M945.114,368.748a3.742,3.742,0,1,0-3.785-3.742A3.743,3.743,0,0,0,945.114,368.748Zm0-6.636a2.924,2.924,0,0,1,2.927,2.894,2.928,2.928,0,1,1-2.927-2.894Z" transform="translate(-939.115 -361.265)" fill="#85dbe0"/>
      <path id="Path_665" data-name="Path 665" d="M990.022,363.765a.635.635,0,1,1-.643.635A.639.639,0,0,1,990.022,363.765Z" transform="translate(-953.248 -362)" fill="#43959d"/>
      <path id="Path_666" data-name="Path 666" d="M973.635,370.665a.635.635,0,1,1-.644.635A.639.639,0,0,1,973.635,370.665Z" transform="translate(-948.428 -364.03)" fill="#43959d"/>
      <path id="Path_667" data-name="Path 667" d="M960.281,362.565a.636.636,0,1,1-.642.635A.639.639,0,0,1,960.281,362.565Z" transform="translate(-944.501 -361.647)" fill="#43959d"/>
      <path id="Path_668" data-name="Path 668" d="M950.873,373.765a.635.635,0,1,1-.642.635A.639.639,0,0,1,950.873,373.765Z" transform="translate(-941.734 -364.941)" fill="#43959d"/>
      <path id="Path_669" data-name="Path 669" d="M938.836,386.265a.635.635,0,1,1-.643.635A.639.639,0,0,1,938.836,386.265Z" transform="translate(-938.193 -368.618)" fill="#43959d"/>
      <path id="Path_670" data-name="Path 670" d="M990.629,393.165a.635.635,0,1,1-.642.635A.639.639,0,0,1,990.629,393.165Z" transform="translate(-953.427 -370.647)" fill="#43959d"/>
    </g>
  </g>
</svg>
