<svg xmlns="http://www.w3.org/2000/svg" width="36.919" height="39.598" viewBox="0 0 36.919 39.598">
  <g id="Group_86" data-name="Group 86" transform="translate(-860.675 -563.625)">
    <g id="_105_Cucumber_Lettuce_Salad" data-name="105, Cucumber, Lettuce, Salad" transform="translate(860.675 563.625)">
      <g id="Group_85" data-name="Group 85">
        <path id="Path_636" data-name="Path 636" d="M913.342,615.8a.863.863,0,1,1-.873.863A.868.868,0,0,1,913.342,615.8Z" transform="translate(-878.1 -581.179)" fill="#275a5c"/>
        <path id="Path_637" data-name="Path 637" d="M894.424,603.3a.863.863,0,1,1-.873.863A.868.868,0,0,1,894.424,603.3Z" transform="translate(-871.736 -576.973)" fill="#275a5c"/>
        <path id="Path_638" data-name="Path 638" d="M912.161,575.9a.8.8,0,1,1-.805.8A.8.8,0,0,1,912.161,575.9Z" transform="translate(-877.726 -567.755)" fill="#275a5c"/>
        <path id="Path_639" data-name="Path 639" d="M900.7,580.8a.863.863,0,1,1-.873.863A.868.868,0,0,1,900.7,580.8Z" transform="translate(-873.846 -569.403)" fill="#275a5c"/>
        <path id="Path_640" data-name="Path 640" d="M884.309,580.8a.863.863,0,1,1-.873.863A.868.868,0,0,1,884.309,580.8Z" transform="translate(-868.333 -569.403)" fill="#275a5c"/>
        <path id="Path_641" data-name="Path 641" d="M891.9,567a.863.863,0,1,1-.873.863A.868.868,0,0,1,891.9,567Z" transform="translate(-870.885 -564.76)" fill="#275a5c"/>
        <path id="Path_642" data-name="Path 642" d="M879.251,564.5a.863.863,0,1,1-.873.863A.867.867,0,0,1,879.251,564.5Z" transform="translate(-866.631 -563.919)" fill="#275a5c"/>
        <path id="Path_643" data-name="Path 643" d="M867.819,568.3a.863.863,0,1,1-.873.863A.868.868,0,0,1,867.819,568.3Z" transform="translate(-862.785 -565.198)" fill="#275a5c"/>
        <path id="Path_644" data-name="Path 644" d="M861.548,583.3a.863.863,0,1,1-.873.863A.868.868,0,0,1,861.548,583.3Z" transform="translate(-860.675 -570.244)" fill="#275a5c"/>
        <path id="Path_645" data-name="Path 645" d="M880.465,593.3a.863.863,0,1,1-.873.863A.867.867,0,0,1,880.465,593.3Z" transform="translate(-867.039 -573.609)" fill="#275a5c"/>
        <path id="Path_646" data-name="Path 646" d="M907.07,619.5a.863.863,0,1,1-.873.863A.868.868,0,0,1,907.07,619.5Z" transform="translate(-875.99 -582.423)" fill="#275a5c"/>
        <path id="Path_647" data-name="Path 647" d="M862.762,618.3a.863.863,0,1,1-.873.863A.867.867,0,0,1,862.762,618.3Z" transform="translate(-861.083 -582.02)" fill="#275a5c"/>
        <path id="Path_648" data-name="Path 648" d="M895.519,599.163a.884.884,0,0,0-.873-.863H862.762a.884.884,0,0,0-.873.863v3.981a8.46,8.46,0,0,0,8.391,8.427h0a3.347,3.347,0,0,0,3.356,3.318H883.7a3.347,3.347,0,0,0,3.356-3.318h0a8.5,8.5,0,0,0,8.391-8.427v-3.981Zm-27.723.8v1.659h-4.229v-1.659Zm-4.162,3.318H867.8a8.451,8.451,0,0,0,3.491,6.636h-.806A6.768,6.768,0,0,1,863.634,603.277Zm21.749,8.361A1.652,1.652,0,0,1,883.7,613.3H873.636a1.652,1.652,0,0,1-1.678-1.659h0c1.678-.066,11.948-.066,13.425,0Zm8.458-8.494a6.865,6.865,0,0,1-6.914,6.835h-.806a8.543,8.543,0,0,0,3.49-6.835.884.884,0,0,0-.873-.863.826.826,0,0,0-.8.863,6.865,6.865,0,0,1-6.914,6.835h-4.7a6.812,6.812,0,0,1-6.847-6.636h11.747a.863.863,0,1,0,0-1.725H869.474v-1.659h24.367Z" transform="translate(-861.083 -575.291)" fill="#275a5c"/>
        <path id="Path_649" data-name="Path 649" d="M876.464,577.224A2.335,2.335,0,0,0,877.6,581.6h.6a2.36,2.36,0,0,0,2.35,2.853h.6a2.36,2.36,0,0,0,2.349,2.853h4.1a1.987,1.987,0,0,0,1.074-.265l1.276,1.261a.858.858,0,0,0,1.208,0,.834.834,0,0,0,0-1.194l-1.276-1.261a2.75,2.75,0,0,0,.269-1.062v-4.048a2.372,2.372,0,0,0-2.886-2.322v-.531a2.373,2.373,0,0,0-2.886-2.322v-.6a2.322,2.322,0,0,0-2.35-2.322,2.458,2.458,0,0,0-2.081,1.195l-1.409-1.394a2.369,2.369,0,0,0-3.356,0,2.3,2.3,0,0,0,0,3.318Zm-.2-3.583a.736.736,0,0,1,1.007,0l2.484,2.455a.838.838,0,0,0,.94.2.8.8,0,0,0,.537-.8v-.531a.669.669,0,0,1,.672-.664.718.718,0,0,1,.671.664v2.256a.791.791,0,0,0,.672.8.863.863,0,0,0,.94-.4.773.773,0,0,1,.6-.4.668.668,0,0,1,.671.664v2.19a.791.791,0,0,0,.671.8.863.863,0,0,0,.94-.4.772.772,0,0,1,.6-.4.668.668,0,0,1,.671.663v3.716l-4.833-4.778a.857.857,0,0,0-1.208,0,.834.834,0,0,0,0,1.194l4.833,4.778h-3.692a.668.668,0,0,1-.671-.664.637.637,0,0,1,.4-.6.766.766,0,0,0,.4-.929.8.8,0,0,0-.806-.664h-2.215a.669.669,0,0,1-.672-.664.637.637,0,0,1,.4-.6.765.765,0,0,0,.4-.929.8.8,0,0,0-.806-.664h-2.215a.669.669,0,0,1-.672-.664.718.718,0,0,1,.672-.664h.537a.873.873,0,0,0,.806-.531.815.815,0,0,0-.2-.929L876.33,574.7A.74.74,0,0,1,876.263,573.641Z" transform="translate(-865.321 -566.359)" fill="#43959d"/>
        <path id="Path_650" data-name="Path 650" d="M864.842,594.139a2.941,2.941,0,0,1,4.162,0,3.9,3.9,0,1,0-7.115-2.92A3.009,3.009,0,0,0,864.842,594.139Zm4.229-4.18a1.267,1.267,0,0,1,1.275,1.261,1.227,1.227,0,0,1-1.275,1.261,1.261,1.261,0,1,1,0-2.521Zm-4.229,0a1.267,1.267,0,0,1,1.275,1.261,1.275,1.275,0,0,1-2.551,0A1.267,1.267,0,0,1,864.842,589.959Z" transform="translate(-861.083 -571.927)" fill="#83c3ca"/>
        <path id="Path_651" data-name="Path 651" d="M868.284,583.7a2.535,2.535,0,0,0,2.55-2.522,2.433,2.433,0,0,0-1.677-2.322v-2.19a.873.873,0,0,0-1.746,0v2.19a2.456,2.456,0,0,0-1.678,2.389A2.523,2.523,0,0,0,868.284,583.7Zm0-3.318a.863.863,0,1,1-.873.863A.883.883,0,0,1,868.284,580.379Z" transform="translate(-862.377 -567.721)" fill="#85dbe0"/>
        <path id="Path_652" data-name="Path 652" d="M898.157,574.225a3.119,3.119,0,0,0,3.088-3.119,3.169,3.169,0,0,0,2.216-.863,3.015,3.015,0,0,0,.536-3.583l1.611-1.592a.834.834,0,0,0,0-1.194.857.857,0,0,0-1.208,0l-1.611,1.593a2.9,2.9,0,0,0-1.477-.4,3.077,3.077,0,0,0-3.088,3.119,3.021,3.021,0,1,0-.067,6.038Zm2.148-7.1a1.389,1.389,0,0,1,1.947,0,1.351,1.351,0,0,1,0,1.924,1.389,1.389,0,0,1-1.947,0A1.35,1.35,0,0,1,900.305,567.125Zm-2.148,2.721a1.41,1.41,0,0,1,1.41,1.393,1.369,1.369,0,0,1-1.41,1.394,1.394,1.394,0,1,1,0-2.787Z" transform="translate(-872.246 -563.625)" fill="#83c3ca"/>
        <path id="Path_653" data-name="Path 653" d="M904.983,588.321a2.551,2.551,0,1,0,2.551-2.521A2.535,2.535,0,0,0,904.983,588.321Zm3.356,0a.873.873,0,1,1-.873-.863A.884.884,0,0,1,908.339,588.321Z" transform="translate(-875.582 -571.085)" fill="#85dbe0"/>
        <path id="Path_654" data-name="Path 654" d="M901.139,587.077a5.035,5.035,0,1,0,5.035-4.977A5.042,5.042,0,0,0,901.139,587.077Zm8.391,0a3.356,3.356,0,1,1-3.356-3.318A3.3,3.3,0,0,1,909.53,587.077Z" transform="translate(-874.288 -569.841)" fill="#85dbe0"/>
      </g>
    </g>
  </g>
</svg>
