<svg xmlns="http://www.w3.org/2000/svg" width="36.333" height="36.334" viewBox="0 0 36.333 36.334">
  <g id="Group_124" data-name="Group 124" transform="translate(-1257.45 -350.026)">
    <g id="_626_Board_Art_Arts_Paint" data-name="626, Board, Art, Arts, Paint" transform="translate(1257.45 350.026)">
      <g id="Group_89" data-name="Group 89">
        <path id="Path_671" data-name="Path 671" d="M1291.152,375.02V353.054a.785.785,0,0,0-.772-.771h-9.855v-.357a1.9,1.9,0,1,0-3.8,0v.357h-9.8a.786.786,0,0,0-.772.771V375.02a2.256,2.256,0,0,0,0,4.512h4.868l-2.553,5.76a.777.777,0,0,0,.712,1.068h3.028a.73.73,0,0,0,.594-.3l5.046-6.531h1.544l5.046,6.531a.731.731,0,0,0,.594.3h3.027a.784.784,0,0,0,.712-1.068l-2.553-5.76h4.868a2.255,2.255,0,0,0,2.256-2.256A2.168,2.168,0,0,0,1291.152,375.02Zm-12.883-23.095a.342.342,0,0,1,.356-.356.383.383,0,0,1,.356.356V354.6h-.712Zm-1.484,1.9v.713h-.771a.772.772,0,1,0,0,1.543h5.284a.772.772,0,0,0,0-1.543h-.772v-.772h9.083v15.139h-1.128l-6.293-7.717a.792.792,0,0,0-1.187,0l-3.5,4.333-2.375-2.908a.792.792,0,0,0-1.187,0l-5.165,6.412h-1.128v-15.2Zm-2.078,15.139h-3.919l3.8-4.69,1.959,2.434C1276.488,366.709,1274.589,369.084,1274.708,368.965Zm6.887-6.115,4.927,6.115h-9.855Zm-13.893,7.6h21.967v4.571h-2.256v-1.484a.786.786,0,0,0-.771-.772h-3.8a.786.786,0,0,0-.772.772v1.484H1267.7Zm18.167,4.571h-2.256v-.771h2.256Zm-14.011,9.855h-1.485l2.376-5.283h3.265Zm15.08,0h-1.484l-4.156-5.283h3.265Zm4.215-6.827h-24.994a.772.772,0,0,1,0-1.543h24.994a.772.772,0,1,1,0,1.543Z" transform="translate(-1260.103 -350.026)" fill="#275a5c"/>
        <path id="Path_672" data-name="Path 672" d="M1262.052,372.137a.772.772,0,1,0-.771-.771A.786.786,0,0,0,1262.052,372.137Z" transform="translate(-1259.025 -358.483)" fill="#83c3ca"/>
        <path id="Path_673" data-name="Path 673" d="M1313.472,382.188a.772.772,0,1,0,.771.772A.749.749,0,0,0,1313.472,382.188Z" transform="translate(-1280.166 -363.249)" fill="#83c3ca"/>
        <path id="Path_674" data-name="Path 674" d="M1308.329,404.067a.772.772,0,1,0,.772.771A.748.748,0,0,0,1308.329,404.067Z" transform="translate(-1278.052 -372.245)" fill="#43959d"/>
        <path id="Path_675" data-name="Path 675" d="M1287.762,404.067a.772.772,0,1,0,.772.771A.748.748,0,0,0,1287.762,404.067Z" transform="translate(-1269.595 -372.245)" fill="#83c3ca"/>
        <path id="Path_676" data-name="Path 676" d="M1267.194,402.756a.772.772,0,1,0,.772.772A.786.786,0,0,0,1267.194,402.756Z" transform="translate(-1261.139 -371.706)" fill="#43959d"/>
        <path id="Path_677" data-name="Path 677" d="M1313.472,357.921a.772.772,0,1,0-.772-.771A.748.748,0,0,0,1313.472,357.921Z" transform="translate(-1280.166 -352.638)" fill="#83c3ca"/>
        <path id="Path_678" data-name="Path 678" d="M1303.188,367a.772.772,0,1,0-.771-.773A.787.787,0,0,0,1303.188,367Z" transform="translate(-1275.938 -356.368)" fill="#43959d"/>
        <path id="Path_679" data-name="Path 679" d="M1298.046,361.621a.772.772,0,1,1-.772.771A.771.771,0,0,1,1298.046,361.621Z" transform="translate(-1273.824 -354.793)" fill="#83c3ca"/>
        <path id="Path_680" data-name="Path 680" d="M1274.957,367a.772.772,0,1,0-.771-.773A.749.749,0,0,0,1274.957,367Z" transform="translate(-1264.331 -356.368)" fill="#83c3ca"/>
        <path id="Path_681" data-name="Path 681" d="M1285.415,367.443a2.256,2.256,0,1,0-2.256-2.257A2.256,2.256,0,0,0,1285.415,367.443Zm0-3.028a.772.772,0,1,1-.771.771A.829.829,0,0,1,1285.415,364.415Z" transform="translate(-1268.02 -355.332)" fill="#85dbe0"/>
        <path id="Path_682" data-name="Path 682" d="M1274.191,386.267a.756.756,0,0,0-1.069,1.069l1.485,1.484a.756.756,0,1,0,1.069-1.068Z" transform="translate(-1263.802 -364.835)" fill="#85dbe0"/>
        <path id="Path_683" data-name="Path 683" d="M1279.333,386.267a.756.756,0,0,0-1.069,1.069l1.484,1.484a.756.756,0,1,0,1.069-1.068Z" transform="translate(-1265.917 -364.835)" fill="#85dbe0"/>
        <path id="Path_684" data-name="Path 684" d="M1284.475,386.267a.756.756,0,0,0-1.069,1.069l1.484,1.484a.756.756,0,1,0,1.069-1.068Z" transform="translate(-1268.031 -364.835)" fill="#85dbe0"/>
        <path id="Path_685" data-name="Path 685" d="M1291.1,387.752l-1.484-1.484a.756.756,0,0,0-1.069,1.069l1.484,1.484a.756.756,0,1,0,1.069-1.068Z" transform="translate(-1270.145 -364.835)" fill="#85dbe0"/>
        <path id="Path_686" data-name="Path 686" d="M1259.35,383.4a1.9,1.9,0,1,0,1.9,1.9A1.913,1.913,0,0,0,1259.35,383.4Zm0,2.316a.342.342,0,0,1-.356-.357.356.356,0,1,1,.356.357Z" transform="translate(-1257.45 -363.747)" fill="#85dbe0"/>
        <path id="Path_687" data-name="Path 687" d="M1313.746,368.074A2.256,2.256,0,1,0,1316,370.33,2.255,2.255,0,0,0,1313.746,368.074Zm0,3.027a.772.772,0,1,1,.772-.771A.786.786,0,0,1,1313.746,371.1Z" transform="translate(-1279.669 -357.446)" fill="#85dbe0"/>
      </g>
    </g>
  </g>
</svg>
