<svg xmlns="http://www.w3.org/2000/svg" width="36.057" height="35.659" viewBox="0 0 36.057 35.659">
  <g id="_1490_Celebration_Choreography_Dance_Party" data-name="1490, Celebration, Choreography, Dance, Party" transform="translate(-65.564 -406.821)">
    <g id="Group_133" data-name="Group 133" transform="translate(65.564 406.821)">
      <path id="Path_839" data-name="Path 839" d="M100.856,440.967H87.317a2,2,0,0,0,.471-1.862l-1.3-7.157h0l.706.233a2.49,2.49,0,0,0,2.649-.815l2.3-3.026c.118-.116.118-.291.176-.407l.589-11.987c7.947-4.888,7.476-4.6,7.535-4.655a3.568,3.568,0,0,0,.824-4.015.749.749,0,0,0-1.059-.349l-9.124,5.3a3.727,3.727,0,0,0-3.708-3.142,3.772,3.772,0,0,0-3.767,3.724,3.682,3.682,0,0,0,1.412,2.909l-1.295.64-2.59-1.513a3.748,3.748,0,1,0-4.944-2.793l-8.83-5.063a.883.883,0,0,0-.765,0c-1.472.931-1.06,2.735-.648,3.55a.582.582,0,0,0,.235.291l8.242,5.412c.176.291.471,1.338-.177,4.19a21.324,21.324,0,0,1-1,3.433,5.925,5.925,0,0,0,0,5.528H73.13a2.037,2.037,0,0,0,.059,4.073l3.532.058-.059,6.866a1.961,1.961,0,0,0,.059.582H66.361a.757.757,0,1,0,0,1.513h34.495a.757.757,0,1,0,0-1.513ZM79.9,409.078a2.236,2.236,0,0,1,2.237,2.269,2.273,2.273,0,0,1-2.237,2.269,2.236,2.236,0,0,1-2.237-2.269A2.273,2.273,0,0,1,79.9,409.078Zm1.236,22.054a14.155,14.155,0,0,1-1.06-7.914c.118-.058-.118.058,3.591-2.153.059-.058.118-.058.177-.116L85.669,422c0,.116,0,.116.118,1.164l-2.649,5.586a3.431,3.431,0,0,0-.412,1.513l-.235,2.269a3.547,3.547,0,0,0,.118,1.106c1.3,6.75,1.237,6.4,1.237,6.459a1.594,1.594,0,0,0,.471.873H80.724a1.27,1.27,0,0,0,.059-.466l.353-9.078A.258.258,0,0,0,81.136,431.132Zm-.648-9.951a9.7,9.7,0,0,1,.706-1.8l1.177.7Zm6.946-10.591a2.236,2.236,0,0,1,2.237,2.269,2.273,2.273,0,0,1-2.237,2.269,2.27,2.27,0,0,1,0-4.539Zm-.53,5.935a3.751,3.751,0,0,0,4.062-2.5l9.124-5.3a1.9,1.9,0,0,1-.53,1.4l-7.77,4.772a.639.639,0,0,0-.353.582l-.589,12.1-2.178,2.793a.831.831,0,0,1-1,.407l-.706-.233,1.354-4.015a.714.714,0,0,0-.471-.931.725.725,0,0,0-.942.466l-1.943,5.586a.368.368,0,0,0,0,.349c1.472,7.739,1.413,7.39,1.413,7.448a.563.563,0,0,1-.471.7.485.485,0,0,1-.589-.407c-1.295-6.75-1.236-6.4-1.236-6.459a2.806,2.806,0,0,1-.059-.7l.118-2.211a2.421,2.421,0,0,1,.236-.931s-.059.175,2.766-5.819a.855.855,0,0,0,.059-.407l-.059-.349h0c1.472.407,2.59.349,3.238-.291a1.925,1.925,0,0,0,.589-1.8.85.85,0,0,0-.353-.524l-5.357-3.026Zm-8.712,23.916.059-7.623a.775.775,0,0,0-.765-.757l-4.3-.058a.627.627,0,0,1-.588-.582.576.576,0,0,1,.53-.582l1.472-.058a.688.688,0,0,0,.648-.466.81.81,0,0,0-.118-.815,4.694,4.694,0,0,1-.589-5.121c0-.058.059-.058.059-.116a34.456,34.456,0,0,0,1.06-3.666c.648-2.793.589-4.6-.176-5.528l-.177-.175-8.123-5.3a1.845,1.845,0,0,1-.118-1.164l22.31,12.8c0,.058-.059.116-.118.175-.118.058-.471.291-1.766,0l-6.416-3.841a.772.772,0,0,0-1.06.233,14.147,14.147,0,0,0-1.472,4.073,15.551,15.551,0,0,0,.942,9.485l-.353,8.9a.525.525,0,0,1-.53.524C78.487,440.967,78.193,440.734,78.193,440.443Z" transform="translate(-65.564 -406.821)" fill="#275a5c"/>
      <path id="Path_840" data-name="Path 840" d="M117.21,449.911a2.237,2.237,0,1,0,2.237-2.211A2.223,2.223,0,0,0,117.21,449.911Zm3,0a.765.765,0,1,1-.765-.757A.775.775,0,0,1,120.212,449.911Z" transform="translate(-87.157 -423.912)" fill="#83c3ca"/>
      <path id="Path_841" data-name="Path 841" d="M67.856,424.8a2.211,2.211,0,1,0,2.237,2.211A2.187,2.187,0,0,0,67.856,424.8Zm0,2.968a.757.757,0,1,1,.765-.756A.775.775,0,0,1,67.856,427.768Z" transform="translate(-65.587 -414.338)" fill="#83c3ca"/>
      <rect id="Rectangle_149" data-name="Rectangle 149" width="1.472" height="1.455" transform="translate(32.29 13.43)" fill="#85dbe0"/>
      <rect id="Rectangle_150" data-name="Rectangle 150" width="1.472" height="1.455" transform="translate(32.29 16.398)" fill="#85dbe0"/>
      <rect id="Rectangle_151" data-name="Rectangle 151" width="1.472" height="1.455" transform="translate(33.821 14.885)" fill="#85dbe0"/>
      <rect id="Rectangle_152" data-name="Rectangle 152" width="1.472" height="1.455" transform="translate(30.819 14.885)" fill="#85dbe0"/>
      <rect id="Rectangle_153" data-name="Rectangle 153" width="1.472" height="1.455" transform="translate(2.269 27.512)" fill="#85dbe0"/>
      <rect id="Rectangle_154" data-name="Rectangle 154" width="1.472" height="1.455" transform="translate(2.269 30.48)" fill="#85dbe0"/>
      <rect id="Rectangle_155" data-name="Rectangle 155" width="1.472" height="1.455" transform="translate(3.8 28.967)" fill="#85dbe0"/>
      <rect id="Rectangle_156" data-name="Rectangle 156" width="1.472" height="1.455" transform="translate(0.797 28.967)" fill="#85dbe0"/>
    </g>
  </g>
</svg>
