<svg xmlns="http://www.w3.org/2000/svg" width="20.966" height="23.063" viewBox="0 0 20.966 23.063">
  <path id="sailing_FILL0_wght400_GRAD0_opsz24" d="M81.048-906.9l8.386-12.055V-906.9Zm4.01-2.1h2.28v-3.276Zm5.949,2.1a14.643,14.643,0,0,0,.681-2.568,18.932,18.932,0,0,0,.367-3.722,22.16,22.16,0,0,0-.354-3.879A19.357,19.357,0,0,0,91.007-920a9.276,9.276,0,0,1,3.184,1.756,15.479,15.479,0,0,1,2.857,3.066,16.928,16.928,0,0,1,2.07,3.918,12.357,12.357,0,0,1,.8,4.364Zm2.726-2.1h3.879a12.227,12.227,0,0,0-1.455-3.7,16.218,16.218,0,0,0-2.136-2.857q.052.55.092,1.14t.039,1.219a20.466,20.466,0,0,1-.118,2.28Q93.916-909.858,93.733-908.993Zm-6.395,7.862a3.594,3.594,0,0,1-1.756-.446,4.863,4.863,0,0,1-1.389-1.127,7.113,7.113,0,0,1-.8.734,3.844,3.844,0,0,1-.957.55,6.283,6.283,0,0,1-1.559-1.69A6.361,6.361,0,0,1,80-905.324h20.966a6.361,6.361,0,0,1-.878,2.215,6.283,6.283,0,0,1-1.559,1.69,3.844,3.844,0,0,1-.957-.55,7.114,7.114,0,0,1-.8-.734,5.309,5.309,0,0,1-1.4,1.127,3.52,3.52,0,0,1-1.743.446,3.594,3.594,0,0,1-1.756-.446,4.863,4.863,0,0,1-1.389-1.127,4.863,4.863,0,0,1-1.389,1.127A3.594,3.594,0,0,1,87.338-901.13ZM80-896.937v-2.1h1.048a5.226,5.226,0,0,0,1.638-.262,5.288,5.288,0,0,0,1.507-.786,5.035,5.035,0,0,0,1.507.773,5.476,5.476,0,0,0,1.638.249,5.349,5.349,0,0,0,1.625-.249,5.432,5.432,0,0,0,1.52-.773,5.035,5.035,0,0,0,1.507.773,5.476,5.476,0,0,0,1.638.249,5.349,5.349,0,0,0,1.625-.249,5.432,5.432,0,0,0,1.52-.773,5.728,5.728,0,0,0,1.52.786,5.106,5.106,0,0,0,1.625.262h1.048v2.1H99.918a6.564,6.564,0,0,1-1.6-.2,7.114,7.114,0,0,1-1.546-.59,7.114,7.114,0,0,1-1.546.59,6.563,6.563,0,0,1-1.6.2,6.563,6.563,0,0,1-1.6-.2,7.114,7.114,0,0,1-1.546-.59,7.114,7.114,0,0,1-1.546.59,6.564,6.564,0,0,1-1.6.2,6.564,6.564,0,0,1-1.6-.2,7.114,7.114,0,0,1-1.546-.59,7.114,7.114,0,0,1-1.546.59,6.564,6.564,0,0,1-1.6.2ZM87.338-908.993ZM93.733-908.993Z" transform="translate(-80 920)"/>
</svg>
