<svg xmlns="http://www.w3.org/2000/svg" width="23.394" height="23.394" viewBox="0 0 23.394 23.394">
  <path id="spa_FILL0_wght400_GRAD0_opsz24" d="M91.7-856.606a15.79,15.79,0,0,1-4.24-1.155A11.649,11.649,0,0,1,83.7-860.32a12.536,12.536,0,0,1-2.676-4.211A16.366,16.366,0,0,1,80-870.643v-1.17h1.17a13.1,13.1,0,0,1,3.07.38,11.753,11.753,0,0,1,2.953,1.14,18.016,18.016,0,0,1,1.594-5.161A19.266,19.266,0,0,1,91.7-880a19.266,19.266,0,0,1,2.91,4.547,18.015,18.015,0,0,1,1.594,5.161,11.753,11.753,0,0,1,2.953-1.14,13.1,13.1,0,0,1,3.07-.38h1.17v1.17a16.366,16.366,0,0,1-1.023,6.112,12.536,12.536,0,0,1-2.676,4.211,11.7,11.7,0,0,1-3.743,2.559A15.6,15.6,0,0,1,91.7-856.606Zm-.058-2.4q-.322-4.854-2.88-7.34a11.351,11.351,0,0,0-6.36-3.07q.322,5,2.968,7.457A11.249,11.249,0,0,0,91.638-859Zm.058-7.427a12.042,12.042,0,0,1,1.067-1.331,13.623,13.623,0,0,1,1.214-1.184,12.481,12.481,0,0,0-.658-3.48,18.005,18.005,0,0,0-1.623-3.538,18.005,18.005,0,0,0-1.623,3.538,12.481,12.481,0,0,0-.658,3.48,15.1,15.1,0,0,1,1.228,1.184A9.212,9.212,0,0,1,91.7-866.432Zm2.281,6.9a11.935,11.935,0,0,0,2.252-1.023,8.6,8.6,0,0,0,2.179-1.828,10.406,10.406,0,0,0,1.725-2.88,12.857,12.857,0,0,0,.863-4.152,11.4,11.4,0,0,0-4.825,1.828,9.538,9.538,0,0,0-3.187,3.611,15.421,15.421,0,0,1,.6,2.047A22.8,22.8,0,0,1,93.978-859.531ZM91.7-866.432ZM93.978-859.531ZM91.638-859ZM92.983-863.975ZM91.7-856.606Z" transform="translate(-80 880)"/>
</svg>
