<svg xmlns="http://www.w3.org/2000/svg" width="27.896" height="22.265" viewBox="0 0 27.896 22.265">
  <path id="skillet_FILL0_wght400_GRAD0_opsz24" d="M83.176-830.832a3.023,3.023,0,0,0,.147-2.1,5.91,5.91,0,0,0-1.064-1.833,7.224,7.224,0,0,1-1.424-2.472A6.527,6.527,0,0,1,80.72-840h2.554a4.865,4.865,0,0,0-.082,2.03,4.3,4.3,0,0,0,.933,1.7,8.02,8.02,0,0,1,1.588,2.668,5.73,5.73,0,0,1,.016,2.767Zm5.239,0a3.1,3.1,0,0,0,.164-2.1,5.636,5.636,0,0,0-1.048-1.833,7.482,7.482,0,0,1-1.441-2.472A6.335,6.335,0,0,1,85.959-840h2.554a4.865,4.865,0,0,0-.082,2.03,4.3,4.3,0,0,0,.933,1.7,8.02,8.02,0,0,1,1.588,2.668,5.73,5.73,0,0,1,.016,2.767Zm5.239,0a3.1,3.1,0,0,0,.164-2.1,5.636,5.636,0,0,0-1.048-1.833,7.482,7.482,0,0,1-1.441-2.472A6.335,6.335,0,0,1,91.2-840h2.554a4.864,4.864,0,0,0-.082,2.03,4.3,4.3,0,0,0,.933,1.7,8.02,8.02,0,0,1,1.588,2.668,5.73,5.73,0,0,1,.016,2.767Zm-9.724,13.1a3.789,3.789,0,0,1-2.783-1.146A3.789,3.789,0,0,1,80-821.665v-6.548H98.368a3.758,3.758,0,0,1,.884-1.948,4.021,4.021,0,0,1,1.768-1.2l6.057-2.03.819,2.488-6.057,2.03a1.255,1.255,0,0,0-.638.475,1.292,1.292,0,0,0-.246.769v5.959a3.789,3.789,0,0,1-1.146,2.783,3.789,3.789,0,0,1-2.783,1.146Zm0-2.619h13.1a1.267,1.267,0,0,0,.933-.377,1.267,1.267,0,0,0,.377-.933v-3.929H82.619v3.929a1.268,1.268,0,0,0,.377.933A1.267,1.267,0,0,0,83.929-820.355ZM90.477-822.974Z" transform="translate(-80 840)"/>
</svg>
